HIERARCHY
ROOT hip
{
  OFFSET 0 0 0
  CHANNELS 6 Xposition Yposition Zposition Zrotation Yrotation Xrotation
  JOINT abdomen
  {
    OFFSET 0 20.6881 -0.73152
    CHANNELS 3 Zrotation Xrotation Yrotation
    JOINT chest
    {
      OFFSET 0 11.7043 -0.48768
      CHANNELS 3 Zrotation Xrotation Yrotation
      JOINT neck
      {
        OFFSET 0 22.1894 -2.19456
        CHANNELS 3 Zrotation Xrotation Yrotation
        JOINT head
        {
          OFFSET -0.24384 7.07133 1.2192
          CHANNELS 3 Zrotation Xrotation Yrotation
          JOINT leftEye
          {
            OFFSET 4.14528 8.04674 8.04672
            CHANNELS 3 Zrotation Xrotation Yrotation
            End Site
            {
              OFFSET 1 0 0
            }
          }
          JOINT rightEye
          {
            OFFSET -3.6576 8.04674 8.04672
            CHANNELS 3 Zrotation Xrotation Yrotation
            End Site
            {
              OFFSET 1 0 0
            }
          }
        }
      }
      JOINT rCollar
      {
        OFFSET -2.68224 19.2634 -4.8768
        CHANNELS 3 Zrotation Xrotation Yrotation
        JOINT rShldr
        {
          OFFSET -8.77824 -1.95073 1.46304
          CHANNELS 3 Zrotation Xrotation Yrotation
          JOINT rForeArm
          {
            OFFSET -28.1742 -1.7115 0.48768
            CHANNELS 3 Zrotation Xrotation Yrotation
            JOINT rHand
            {
              OFFSET -22.5879 0.773209 7.07136
              CHANNELS 3 Zrotation Xrotation Yrotation
              JOINT rThumb1
              {
                OFFSET -1.2192 -0.487915 3.41376
                CHANNELS 3 Zrotation Xrotation Yrotation
                JOINT rThumb2
                {
                  OFFSET -3.37035 -0.52449 3.41376
                  CHANNELS 3 Zrotation Xrotation Yrotation
                  End Site
                  {
                    OFFSET -1.78271 -1.18214 1.43049
                  }
                }
              }
              JOINT rIndex1
              {
                OFFSET -7.75947 0.938293 5.60832
                CHANNELS 3 Zrotation Xrotation Yrotation
                JOINT rIndex2
                {
                  OFFSET -2.54057 -0.884171 1.56538
                  CHANNELS 3 Zrotation Xrotation Yrotation
                  End Site
                  {
                    OFFSET -1.62519 -0.234802 1.16502
                  }
                }
              }
              JOINT rMid1
              {
                OFFSET -8.24714 1.18213 3.41376
                CHANNELS 3 Zrotation Xrotation Yrotation
                JOINT rMid2
                {
                  OFFSET -3.10165 -0.590103 1.0647
                  CHANNELS 3 Zrotation Xrotation Yrotation
                  End Site
                  {
                    OFFSET -2.48547 -0.328903 0.83742
                  }
                }
              }
              JOINT rRing1
              {
                OFFSET -8.82822 0.546677 1.51678
                CHANNELS 3 Zrotation Xrotation Yrotation
                JOINT rRing2
                {
                  OFFSET -2.60934 -0.819778 -0.0198488
                  CHANNELS 3 Zrotation Xrotation Yrotation
                  End Site
                  {
                    OFFSET -2.33842 -0.294052 0.168128
                  }
                }
              }
              JOINT rPinky1
              {
                OFFSET -8.27202 -0.0477905 -0.4584
                CHANNELS 3 Zrotation Xrotation Yrotation
                JOINT rPinky2
                {
                  OFFSET -1.82734 -0.647385 -0.700984
                  CHANNELS 3 Zrotation Xrotation Yrotation
                  End Site
                  {
                    OFFSET -1.69225 -0.51767 -0.607171
                  }
                }
              }
            }
          }
        }
      }
      JOINT lCollar
      {
        OFFSET 2.68224 19.2634 -4.8768
        CHANNELS 3 Zrotation Xrotation Yrotation
        JOINT lShldr
        {
          OFFSET 8.77824 -1.95073 1.46304
          CHANNELS 3 Zrotation Xrotation Yrotation
          JOINT lForeArm
          {
            OFFSET 28.1742 -1.7115 0.48768
            CHANNELS 3 Zrotation Xrotation Yrotation
            JOINT lHand
            {
              OFFSET 22.5879 0.773209 7.07136
              CHANNELS 3 Zrotation Xrotation Yrotation
              JOINT lThumb1
              {
                OFFSET 1.2192 -0.487915 3.41376
                CHANNELS 3 Zrotation Xrotation Yrotation
                JOINT lThumb2
                {
                  OFFSET 3.37035 -0.52449 3.41376
                  CHANNELS 3 Zrotation Xrotation Yrotation
                  End Site
                  {
                    OFFSET 1.78271 -1.18214 1.43049
                  }
                }
              }
              JOINT lIndex1
              {
                OFFSET 7.75947 0.938293 5.60832
                CHANNELS 3 Zrotation Xrotation Yrotation
                JOINT lIndex2
                {
                  OFFSET 2.54057 -0.884171 1.56538
                  CHANNELS 3 Zrotation Xrotation Yrotation
                  End Site
                  {
                    OFFSET 1.62519 -0.234802 1.16502
                  }
                }
              }
              JOINT lMid1
              {
                OFFSET 8.24714 1.18213 3.41376
                CHANNELS 3 Zrotation Xrotation Yrotation
                JOINT lMid2
                {
                  OFFSET 3.10165 -0.590103 1.0647
                  CHANNELS 3 Zrotation Xrotation Yrotation
                  End Site
                  {
                    OFFSET 2.48547 -0.328903 0.83742
                  }
                }
              }
              JOINT lRing1
              {
                OFFSET 8.82822 0.546677 1.51678
                CHANNELS 3 Zrotation Xrotation Yrotation
                JOINT lRing2
                {
                  OFFSET 2.60934 -0.819778 -0.0198488
                  CHANNELS 3 Zrotation Xrotation Yrotation
                  End Site
                  {
                    OFFSET 2.33842 -0.294052 0.168128
                  }
                }
              }
              JOINT lPinky1
              {
                OFFSET 8.27202 -0.0477905 -0.4584
                CHANNELS 3 Zrotation Xrotation Yrotation
                JOINT lPinky2
                {
                  OFFSET 1.82734 -0.647385 -0.700984
                  CHANNELS 3 Zrotation Xrotation Yrotation
                  End Site
                  {
                    OFFSET 1.69225 -0.51767 -0.607171
                  }
                }
              }
            }
          }
        }
      }
    }
  }
  JOINT rButtock
  {
    OFFSET -8.77824 4.35084 1.2192
    CHANNELS 3 Zrotation Xrotation Yrotation
    JOINT rThigh
    {
      OFFSET 0 -1.70687 -2.19456
      CHANNELS 3 Zrotation Xrotation Yrotation
      JOINT rShin
      {
        OFFSET 0 -36.8199 0.73152
        CHANNELS 3 Zrotation Xrotation Yrotation
        JOINT rFoot
        {
          OFFSET 0.73152 -45.1104 -5.12064
          CHANNELS 3 Zrotation Xrotation Yrotation
          End Site
          {
            OFFSET -1.1221 -3.69964 12.103
          }
        }
      }
    }
  }
  JOINT lButtock
  {
    OFFSET 8.77824 4.35084 1.2192
    CHANNELS 3 Zrotation Xrotation Yrotation
    JOINT lThigh
    {
      OFFSET 0 -1.70687 -2.19456
      CHANNELS 3 Zrotation Xrotation Yrotation
      JOINT lShin
      {
        OFFSET 0 -36.8199 0.73152
        CHANNELS 3 Zrotation Xrotation Yrotation
        JOINT lFoot
        {
          OFFSET -0.73152 -45.1104 -5.12064
          CHANNELS 3 Zrotation Xrotation Yrotation
          End Site
          {
            OFFSET 1.1221 -3.69964 12.103
          }
        }
      }
    }
  }
}
MOTION
Frames:	5
Frame Time:	0.00833333
-5.27588 84.0919 33.9557 -2.0507 -6.7397 2.3528 0.708428 17.0297 -1.35343 0.975966 -4.01778 -0.332509 -0.201802 16.3151 -1.05368 4.26089 -32.0938 -0.884038 -0.0 0.0 0.0 -0.0 0.0 0.0 1.26649e-14 -8.74708e-15 -8.60862e-14 10.6372 13.9292 23.1998 -15.3 -56.2549 124.686 -13.1623 -67.3257 -19.6566 -2.22412e-10 2.50182e-11 -3.90335e-10 -3.57306e-10 1.05438e-10 -6.82273e-10 -2.22412e-10 2.50266e-11 -3.90344e-10 7.73091 5.47488 0.417314 -2.22416e-10 2.50268e-11 -3.90334e-10 2.90554 0.965183 0.102902 -2.22407e-10 2.50274e-11 -3.90331e-10 10.2786 0.731801 0.0259123 -2.22414e-10 2.50265e-11 -3.90318e-10 2.22167 -0.733487 -0.20892 1.24573e-14 -8.74731e-15 -8.64278e-14 -84.9201 29.8182 12.7071 21.4084 -14.8934 -42.2192 0.00017411 0.372427 -0.0523423 9.93333e-11 1.10762e-10 -8.17943e-11 1.72442e-10 1.91969e-10 -1.40878e-10 9.93285e-11 1.10761e-10 -8.17852e-11 -7.73091 5.47488 -0.417314 9.93356e-11 1.10765e-10 -8.1789e-11 -2.90554 0.965183 -0.102902 9.93273e-11 1.10761e-10 -8.17919e-11 -10.2786 0.731801 -0.0259123 9.93429e-11 1.10765e-10 -8.17995e-11 -2.22167 -0.733487 0.20892 -2.03217e-16 0.0 -3.88251e-19 -21.5206 -2.98636 -0.0147103 -0.000948634 -0.467548 -0.00809191 0.428873 3.45712 -0.00552819 2.03217e-16 0.0 3.88251e-19 9.35518 -10.6544 -1.02742 0.0625153 23.0165 -0.589555 5.06537 -17.0619 15.8122
-5.27784 84.0818 33.9922 -2.077 -6.6386 2.3087 0.778693 16.8822 -1.30205 0.945364 -3.9463 -0.316795 -0.212008 16.3309 -1.04039 4.21102 -31.4631 -0.893443 -0.0 0.0 0.0 -0.0 0.0 0.0 -4.93869e-14 1.50341e-14 -1.28294e-14 10.8012 14.4296 23.0224 -15.3639 -56.2234 124.553 -13.5181 -67.7025 -20.0416 -3.60444e-10 -3.49597e-11 -5.0775e-10 -5.8859e-10 1.0301e-11 -8.92099e-10 -3.60445e-10 -3.49533e-11 -5.07758e-10 7.73091 5.47488 0.417314 -3.60448e-10 -3.4951e-11 -5.07747e-10 2.90554 0.965183 0.102902 -3.6044e-10 -3.49496e-11 -5.07745e-10 10.2786 0.731801 0.0259123 -3.60447e-10 -3.49489e-11 -5.07731e-10 2.22167 -0.733487 -0.20892 -4.95567e-14 1.50308e-14 -1.31493e-14 -84.9189 29.96 12.7145 21.4484 -14.9504 -42.3237 7.13348e-05 0.25606 -0.0359872 5.47861e-10 5.02854e-10 -7.06805e-11 9.48091e-10 8.69973e-10 -1.21841e-10 5.47856e-10 5.02852e-10 -7.0669e-11 -7.73091 5.47488 -0.417314 5.47863e-10 5.02856e-10 -7.0672e-11 -2.90554 0.965183 -0.102902 5.47856e-10 5.02851e-10 -7.06759e-11 -10.2786 0.731801 -0.0259123 5.47872e-10 5.02856e-10 -7.06824e-11 -2.22167 -0.733487 0.20892 -2.03217e-16 0.0 -3.88251e-19 -21.5204 -2.99147 -0.0147571 -0.000938221 -0.462415 -0.008006 0.430568 3.45706 -0.00577157 2.03217e-16 0.0 3.88251e-19 9.40372 -10.5971 -0.99643 0.0630344 23.0418 -0.588674 4.99929 -17.0272 15.6534
-5.28935 84.073 34.0185 -2.1343 -6.5665 2.2769 0.863394 16.7438 -1.23953 0.911854 -3.878 -0.297415 -0.234708 16.3616 -1.03502 4.1455 -30.8836 -0.920659 -0.0 0.0 0.0 -0.0 0.0 0.0 -7.94439e-14 3.02172e-14 1.28713e-14 10.9573 14.9354 22.8878 -15.4472 -56.182 124.38 -13.804 -67.9947 -20.3503 -4.45577e-10 -9.61704e-11 -5.54708e-10 -7.3263e-10 -9.15077e-11 -9.77961e-10 -4.45576e-10 -9.61637e-11 -5.54717e-10 7.73091 5.47488 0.417314 -4.4558e-10 -9.6163e-11 -5.54705e-10 2.90554 0.965183 0.102902 -4.45574e-10 -9.61612e-11 -5.54702e-10 10.2786 0.731801 0.0259123 -4.45581e-10 -9.61593e-11 -5.54689e-10 2.22167 -0.733487 -0.20892 -7.9589e-14 3.02122e-14 1.25731e-14 -84.9228 30.1175 12.727 21.4846 -15.002 -42.4185 2.98734e-05 0.156066 -0.0219337 8.14515e-10 7.4049e-10 -9.94051e-11 1.40938e-09 1.28094e-09 -1.71925e-10 8.1451e-10 7.40487e-10 -9.93923e-11 -7.73091 5.47488 -0.417314 8.14516e-10 7.40491e-10 -9.93955e-11 -2.90554 0.965183 -0.102902 8.14509e-10 7.40487e-10 -9.93995e-11 -10.2786 0.731801 -0.0259123 8.14525e-10 7.40492e-10 -9.94051e-11 -2.22167 -0.733487 0.20892 -2.03217e-16 0.0 -3.88251e-19 -21.5205 -2.99641 -0.014798 -0.000928698 -0.457841 -0.00792723 0.432381 3.45739 -0.00602712 2.03217e-16 0.0 3.88251e-19 9.4567 -10.5369 -0.971802 0.0634478 23.069 -0.588162 4.94567 -17.0032 15.5248
-5.30053 84.0671 34.0465 -2.1824 -6.5195 2.2237 0.978568 16.6162 -1.15901 0.871032 -3.81162 -0.271925 -0.279944 16.4241 -1.04341 4.06418 -30.3816 -0.976574 -0.0 0.0 0.0 -0.0 0.0 0.0 -5.70742e-14 3.51992e-14 -4.21757e-14 11.1013 15.4661 22.8177 -15.5576 -56.1265 124.15 -13.9828 -68.1731 -20.5429 -4.7444e-10 -1.87267e-10 -4.99957e-10 -7.85085e-10 -2.49293e-10 -8.86182e-10 -4.74434e-10 -1.87255e-10 -4.99972e-10 7.73091 5.47488 0.417314 -4.74443e-10 -1.87263e-10 -4.99955e-10 2.90554 0.965183 0.102902 -4.74438e-10 -1.87261e-10 -4.99952e-10 10.2786 0.731801 0.0259123 -4.74446e-10 -1.87259e-10 -4.99939e-10 2.22167 -0.733487 -0.20892 -5.72136e-14 3.51943e-14 -4.24479e-14 -84.9355 30.3078 12.7484 21.5168 -15.0482 -42.5031 3.02978e-05 0.0816468 -0.0114748 8.04437e-10 7.42633e-10 -2.08427e-10 1.39246e-09 1.28484e-09 -3.61229e-10 8.04432e-10 7.4263e-10 -2.08415e-10 -7.73091 5.47488 -0.417314 8.04439e-10 7.42633e-10 -2.0842e-10 -2.90554 0.965183 -0.102902 8.04431e-10 7.42629e-10 -2.08423e-10 -10.2786 0.731801 -0.0259123 8.04446e-10 7.42634e-10 -2.08427e-10 -2.22167 -0.733487 0.20892 -2.03217e-16 0.0 -3.88251e-19 -21.5212 -3.00143 -0.0148306 -0.000919356 -0.453795 -0.00784943 0.434606 3.45834 -0.00633397 2.03217e-16 0.0 3.88251e-19 9.52348 -10.4687 -0.955953 0.0636102 23.1021 -0.588254 4.90856 -16.9953 15.437
-5.3104 84.0629 34.0782 -2.2241 -6.4723 2.1431 1.11614 16.4993 -1.06623 0.823647 -3.75104 -0.2422 -0.337307 16.5033 -1.05972 3.96905 -29.9267 -1.05007 -0.0 0.0 0.0 -0.0 0.0 0.0 -2.92402e-15 3.46892e-14 -1.44448e-13 11.2394 16.0148 22.7916 -15.6805 -56.0639 123.893 -14.0856 -68.2746 -20.6535 -4.69492e-10 -3.07841e-10 -3.68909e-10 -7.83404e-10 -4.62398e-10 -6.61679e-10 -4.69478e-10 -3.07822e-10 -3.68931e-10 7.73091 5.47488 0.417314 -4.69493e-10 -3.07842e-10 -3.68909e-10 2.90554 0.965183 0.102902 -4.69489e-10 -3.07841e-10 -3.68904e-10 10.2786 0.731801 0.0259123 -4.695e-10 -3.07839e-10 -3.68892e-10 2.22167 -0.733487 -0.20892 -3.06455e-15 3.46857e-14 -1.44687e-13 -84.9537 30.5229 12.7781 21.5456 -15.0896 -42.5787 2.79021e-05 0.0287982 -0.0040474 6.24402e-10 6.00792e-10 -3.69433e-10 1.08187e-09 1.03986e-09 -6.40666e-10 6.24396e-10 6.00789e-10 -3.69421e-10 -7.73091 5.47488 -0.417314 6.24404e-10 6.0079e-10 -3.69428e-10 -2.90554 0.965183 -0.102902 6.24395e-10 6.00788e-10 -3.6943e-10 -10.2786 0.731801 -0.0259123 6.24408e-10 6.00793e-10 -3.69433e-10 -2.22167 -0.733487 0.20892 -2.03217e-16 0.0 -3.88251e-19 -21.5221 -3.00682 -0.014861 -0.000908688 -0.449395 -0.00776029 0.437222 3.45931 -0.00669664 2.03217e-16 0.0 3.88251e-19 9.60377 -10.3997 -0.936144 0.0636581 23.1426 -0.588724 4.87754 -16.9941 15.3658
